_______ Visit us at our Semi Public Bittorrent Community ________
  
http://p2pdl.com  _____________________________  http://p2pdl.com



Drift 2013 BRRip 480p x264 AAC - VYTO


Genre: Drama | Sport
Plot: In the 70s two brothers battle killer waves, conservative society and ruthless
bikers to kick-start the modern surf industry.   
Director: Ben Nott, Morgan O'Neill
Stars:  Sam Worthington, Xavier Samuel, Lesley-Ann Brandt.
Rated: R for language and drug content.


Info: 
http://www.imdb.com/title/tt1714833/

Trailer:


Format                         : MPEG-4
File size                      : 376 MiB
Duration                       : 1h 53mn
Overall bit rate mode          : Variable
Overall bit rate               : 464 Kbps
Source                         : 720p.BluRay.x264-SONiDO

Video
Format                         : AVC
Duration                       : 1h 53mn
Bit rate                       : 422 Kbps
Width                          : 720 pixels
Height                         : 304 pixels
Display aspect ratio           : 2.35:1
Frame rate mode                : Constant
Frame rate                     : 24.000 fps
Stream size                    : 342 MiB (91%)
Writing library                : x264 core 130 r2273

Audio
Format                         : AAC
Bit rate mode                  : Variable
Bit rate                       : 40.0 Kbps
Channel(s)                     : 2 channels
Channel positions              : Front: L R
Sampling rate                  : 48.0 KHz
Stream size                    : 32.4 MiB (9%)
Language                       : English

Subtitle                       : N/a

 
http://ultraimg.com/images/kglow.png 
http://ultraimg.com/images/YRuby.png 
http://ultraimg.com/images/fxWLK.png 
http://ultraimg.com/images/nFVX.png 
http://ultraimg.com/images/NwIc0.png 
http://ultraimg.com/images/HtB6E.png


----------------------------------------------------------------------------------------------------


Encoded using revolutionary 10bit encoding, which enables us to provide you more crispier 
and sharper images at small sizes, just make sure you follow our instructions without a fault.
Recommend to you to use latest version of VLC player. Install K-Lite Codec Pack or shark007 codecs
in case of any kind of problem in playback (For non-VLC Media Player users). Alternatively, install
Core AVC codecs, the fastest decoder that there is coupled with Community Center Codec Pack and play
on Windows Media Player Classic. Check sample to be sure.
Enjoy!

Encoder Notes:Looking For Early Access To Anything You Can Provide DVDScr, R5, DVDR, BluRay, Direct
Audio, Music Releases and Seedboxes. We require dedicated servers, so as to do more 
and fast releases of movies.
If You Got anything to offer please contact us at "contact@p2pdl.com".

Face book Fan Page:   
http://fbl.me/BC